<mxfile host="app.diagrams.net" agent="Mozilla/5.0 (Windows NT 10.0; Win64; x64; rv:133.0) Gecko/20100101 Firefox/133.0" version="25.0.3">
  <diagram name="Page-1" id="-sLu5EsLMUIvVq8ikMaI">
    <mxGraphModel dx="1593" dy="860" grid="1" gridSize="10" guides="1" tooltips="1" connect="1" arrows="1" fold="1" page="1" pageScale="1" pageWidth="850" pageHeight="1100" background="#000000" math="0" shadow="0">
      <root>
        <mxCell id="0" />
        <mxCell id="1" parent="0" />
        <mxCell id="pISSWWKWk6RPVyupkc65-1" value="&lt;div align=&quot;left&quot;&gt;&lt;b&gt;Person Service&lt;/b&gt;&lt;/div&gt;&lt;div align=&quot;left&quot;&gt;depends-on:&lt;/div&gt;&lt;div align=&quot;left&quot;&gt;&lt;b&gt;&amp;nbsp;&lt;/b&gt;- mongo-people&lt;b&gt;&lt;br&gt;&lt;/b&gt;&lt;/div&gt;&lt;div align=&quot;left&quot;&gt;image: jefk13/person-service&lt;br&gt;&lt;/div&gt;&lt;div&gt;ports:&lt;/div&gt;&lt;div&gt;&amp;nbsp;- 8083:8083&lt;/div&gt;&lt;div&gt;links:&lt;/div&gt;&lt;div&gt;&amp;nbsp;- mongo-people&lt;/div&gt;&lt;div&gt;environment:&lt;/div&gt;&lt;div&gt;&amp;nbsp;MONGODB-PORT: 27017&lt;br&gt;&lt;/div&gt;&lt;div&gt;&amp;nbsp;MONGODB-HOST: mongo-people&lt;br&gt;&lt;/div&gt;" style="whiteSpace=wrap;html=1;aspect=fixed;fillColor=#666666;align=left;rounded=0;verticalAlign=top;spacingLeft=2;fontColor=#FFFFFF;" parent="1" vertex="1">
          <mxGeometry x="1500" y="10" width="190" height="190" as="geometry" />
        </mxCell>
        <mxCell id="pISSWWKWk6RPVyupkc65-2" value="&lt;div align=&quot;left&quot;&gt;&lt;b&gt;Ticket Service&lt;/b&gt;&lt;/div&gt;&lt;div align=&quot;left&quot;&gt;depends-on:&lt;/div&gt;&lt;div align=&quot;left&quot;&gt;&amp;nbsp;- mysql-tickets&lt;/div&gt;&lt;div align=&quot;left&quot;&gt;&amp;nbsp;- person-service&lt;b&gt;&lt;br&gt;&lt;/b&gt;&lt;/div&gt;&lt;div align=&quot;left&quot;&gt;image: jefk13/ticket-service&lt;br&gt;&lt;/div&gt;&lt;div&gt;ports:&lt;/div&gt;&lt;div&gt;&amp;nbsp;- 8082:8082&lt;/div&gt;&lt;div&gt;links:&lt;/div&gt;&lt;div&gt;&amp;nbsp;- mysql-tickets&lt;/div&gt;&lt;div&gt;environment:&lt;/div&gt;&amp;nbsp; PERSON_SERVICE_BASEURL: person-service:8083&lt;br&gt;&amp;nbsp; MYSQL_DB_USERNAME: root&lt;br&gt;&amp;nbsp; MYSQL_DB_PASSWORD: abc123&lt;br&gt;&amp;nbsp; MYSQL_DB_HOST: mysql-tickets&lt;br&gt;&amp;nbsp; MYSQL_DB_PORT: 3306" style="whiteSpace=wrap;html=1;fillColor=#666666;align=left;rounded=0;verticalAlign=top;spacingLeft=2;fontColor=#FFFFFF;" parent="1" vertex="1">
          <mxGeometry x="1360" y="210" width="330" height="230" as="geometry" />
        </mxCell>
        <mxCell id="pISSWWKWk6RPVyupkc65-3" value="&lt;div align=&quot;left&quot;&gt;&lt;b&gt;Ride Service&lt;/b&gt;&lt;/div&gt;&lt;div align=&quot;left&quot;&gt;depends-on:&lt;/div&gt;&lt;div align=&quot;left&quot;&gt;&amp;nbsp;- mongo-rides&lt;/div&gt;&lt;div align=&quot;left&quot;&gt;image: jefk13/ride-service&lt;br&gt;&lt;/div&gt;&lt;div&gt;ports:&lt;/div&gt;&lt;div&gt;&amp;nbsp;- 8080:8080&lt;/div&gt;&lt;div&gt;links:&lt;/div&gt;&lt;div&gt;&amp;nbsp;- mongo-rides&lt;/div&gt;&lt;div&gt;environment:&lt;/div&gt;&lt;div&gt;&amp;nbsp;MONGODB-PORT: 27017&lt;br&gt;&lt;/div&gt;&amp;nbsp;MONGODB-HOST: mongo-rides" style="whiteSpace=wrap;html=1;fillColor=#666666;align=left;rounded=0;verticalAlign=top;spacingLeft=2;fontColor=#FFFFFF;" parent="1" vertex="1">
          <mxGeometry x="1500" y="450" width="190" height="180" as="geometry" />
        </mxCell>
        <mxCell id="pISSWWKWk6RPVyupkc65-4" value="&lt;div align=&quot;left&quot;&gt;&lt;b&gt;Event Service&lt;/b&gt;&lt;/div&gt;&lt;div align=&quot;left&quot;&gt;depends-on:&lt;/div&gt;&lt;div align=&quot;left&quot;&gt;&amp;nbsp;- mysql-events&lt;/div&gt;&lt;div align=&quot;left&quot;&gt;image: jefk13/event-service&lt;br&gt;&lt;/div&gt;&lt;div&gt;ports:&lt;/div&gt;&lt;div&gt;&amp;nbsp;- 8081:8081&lt;/div&gt;&lt;div&gt;links:&lt;/div&gt;&lt;div&gt;&amp;nbsp;- mysql-events&lt;/div&gt;environment:&lt;br&gt;&amp;nbsp; MYSQL_DB_USERNAME: root&lt;br&gt;&amp;nbsp; MYSQL_DB_PASSWORD: abc123&lt;br&gt;&amp;nbsp; MYSQL_DB_HOST: mysql-events&lt;br&gt;&amp;nbsp; MYSQL_DB_PORT: 3306" style="whiteSpace=wrap;html=1;fillColor=#666666;align=left;rounded=0;verticalAlign=top;spacingLeft=2;fontColor=#FFFFFF;" parent="1" vertex="1">
          <mxGeometry x="1490" y="640" width="200" height="200" as="geometry" />
        </mxCell>
        <mxCell id="pISSWWKWk6RPVyupkc65-7" value="&lt;span style=&quot;left: 37.4842px; top: 332.295px; font-family: sans-serif; transform: scaleX(0.963047);&quot; role=&quot;presentation&quot; dir=&quot;ltr&quot; class=&quot;textLayer--absolute&quot;&gt;mongo-people:&lt;/span&gt;&lt;br role=&quot;presentation&quot; class=&quot;textLayer--absolute&quot;&gt;&lt;span style=&quot;left: 39.397px; top: 340.327px; font-family: sans-serif; transform: scaleX(0.88741);&quot; role=&quot;presentation&quot; dir=&quot;ltr&quot; class=&quot;textLayer--absolute&quot;&gt;image: mongo:latest&lt;/span&gt;&lt;br role=&quot;presentation&quot; class=&quot;textLayer--absolute&quot;&gt;&lt;span style=&quot;left: 39.397px; top: 348.933px; font-family: sans-serif; transform: scaleX(0.896805);&quot; role=&quot;presentation&quot; dir=&quot;ltr&quot; class=&quot;textLayer--absolute&quot;&gt;ports:&lt;/span&gt;&lt;br role=&quot;presentation&quot; class=&quot;textLayer--absolute&quot;&gt;&lt;span style=&quot;left: 43.2226px; top: 356.965px; font-family: sans-serif; transform: scaleX(0.937505);&quot; role=&quot;presentation&quot; dir=&quot;ltr&quot; class=&quot;textLayer--absolute&quot;&gt;- 27017:27017&lt;/span&gt;&lt;br role=&quot;presentation&quot; class=&quot;textLayer--absolute&quot;&gt;&lt;span style=&quot;left: 39.397px; top: 365.571px; font-family: sans-serif; transform: scaleX(0.882987);&quot; role=&quot;presentation&quot; dir=&quot;ltr&quot; class=&quot;textLayer--absolute&quot;&gt;volumes:&lt;/span&gt;&lt;br role=&quot;presentation&quot; class=&quot;textLayer--absolute&quot;&gt;&lt;span style=&quot;left: 43.2226px; top: 373.603px; font-family: sans-serif; transform: scaleX(0.879342);&quot; role=&quot;presentation&quot; dir=&quot;ltr&quot; class=&quot;textLayer--absolute&quot;&gt;- mongodb_person_data:/data/db&lt;/span&gt;&lt;span style=&quot;left: 41.3098px; top: 390.242px; font-family: sans-serif; transform: scaleX(0.937237);&quot; role=&quot;presentation&quot; dir=&quot;ltr&quot; class=&quot;textLayer--absolute&quot;&gt; &lt;br&gt;&lt;/span&gt;&lt;div&gt;&lt;br&gt;&lt;/div&gt;" style="whiteSpace=wrap;html=1;fillColor=#666666;align=left;rounded=0;verticalAlign=top;spacingLeft=2;fontSize=12;fontColor=#FFFFFF;" parent="1" vertex="1">
          <mxGeometry x="450" y="920" width="385" height="100" as="geometry" />
        </mxCell>
        <mxCell id="12s4rS00wi9rZ55LQjnT-1" value="&lt;span style=&quot;left: 37.4842px; top: 332.295px; font-family: sans-serif; transform: scaleX(0.963047);&quot; role=&quot;presentation&quot; dir=&quot;ltr&quot; class=&quot;textLayer--absolute&quot;&gt;mysql-tickets:&lt;/span&gt;&lt;br role=&quot;presentation&quot; class=&quot;textLayer--absolute&quot;&gt;&lt;span style=&quot;left: 39.397px; top: 340.327px; font-family: sans-serif; transform: scaleX(0.88741);&quot; role=&quot;presentation&quot; dir=&quot;ltr&quot; class=&quot;textLayer--absolute&quot;&gt;image: mysql:latest&lt;/span&gt;&lt;br role=&quot;presentation&quot; class=&quot;textLayer--absolute&quot;&gt;&lt;span style=&quot;left: 39.397px; top: 348.933px; font-family: sans-serif; transform: scaleX(0.896805);&quot; role=&quot;presentation&quot; dir=&quot;ltr&quot; class=&quot;textLayer--absolute&quot;&gt;ports:&lt;/span&gt;&lt;br role=&quot;presentation&quot; class=&quot;textLayer--absolute&quot;&gt;&lt;span style=&quot;left: 43.2226px; top: 356.965px; font-family: sans-serif; transform: scaleX(0.937505);&quot; role=&quot;presentation&quot; dir=&quot;ltr&quot; class=&quot;textLayer--absolute&quot;&gt;- 3306:3306&lt;/span&gt;&lt;br role=&quot;presentation&quot; class=&quot;textLayer--absolute&quot;&gt;&lt;span style=&quot;left: 39.397px; top: 365.571px; font-family: sans-serif; transform: scaleX(0.882987);&quot; role=&quot;presentation&quot; dir=&quot;ltr&quot; class=&quot;textLayer--absolute&quot;&gt;volumes:&lt;/span&gt;&lt;br role=&quot;presentation&quot; class=&quot;textLayer--absolute&quot;&gt;&lt;div&gt;&lt;span style=&quot;left: 43.2226px; top: 373.603px; font-family: sans-serif; transform: scaleX(0.879342);&quot; role=&quot;presentation&quot; dir=&quot;ltr&quot; class=&quot;textLayer--absolute&quot;&gt;- mysql_ticket_data:/var/lib/mysql&lt;/span&gt;&lt;/div&gt;&lt;div&gt;&lt;span style=&quot;left: 43.2226px; top: 373.603px; font-family: sans-serif; transform: scaleX(0.879342);&quot; role=&quot;presentation&quot; dir=&quot;ltr&quot; class=&quot;textLayer--absolute&quot;&gt;evironment:&lt;/span&gt;&lt;/div&gt;&lt;div&gt;&lt;span style=&quot;left: 43.2226px; top: 373.603px; font-family: sans-serif; transform: scaleX(0.879342);&quot; role=&quot;presentation&quot; dir=&quot;ltr&quot; class=&quot;textLayer--absolute&quot;&gt;&amp;nbsp; MYSQL_ROOT_PASSWORD: abc123&lt;br&gt;&lt;/span&gt;&lt;/div&gt;&lt;div&gt;&lt;span style=&quot;left: 43.2226px; top: 373.603px; font-family: sans-serif; transform: scaleX(0.879342);&quot; role=&quot;presentation&quot; dir=&quot;ltr&quot; class=&quot;textLayer--absolute&quot;&gt;&lt;br&gt;&lt;/span&gt;&lt;span style=&quot;left: 41.3098px; top: 390.242px; font-family: sans-serif; transform: scaleX(0.937237);&quot; role=&quot;presentation&quot; dir=&quot;ltr&quot; class=&quot;textLayer--absolute&quot;&gt; &lt;/span&gt;&lt;/div&gt;&lt;div&gt;&lt;span style=&quot;left: 41.3098px; top: 390.242px; font-family: sans-serif; transform: scaleX(0.937237);&quot; role=&quot;presentation&quot; dir=&quot;ltr&quot; class=&quot;textLayer--absolute&quot;&gt;&lt;/span&gt;&lt;/div&gt;&lt;div&gt;&lt;br&gt;&lt;/div&gt;" style="whiteSpace=wrap;html=1;fillColor=#666666;align=left;rounded=0;verticalAlign=top;spacingLeft=2;fontSize=12;fontColor=#FFFFFF;" parent="1" vertex="1">
          <mxGeometry x="1250" y="920" width="385" height="130" as="geometry" />
        </mxCell>
        <mxCell id="12s4rS00wi9rZ55LQjnT-2" value="&lt;span style=&quot;left: 37.4842px; top: 332.295px; font-family: sans-serif; transform: scaleX(0.963047);&quot; role=&quot;presentation&quot; dir=&quot;ltr&quot; class=&quot;textLayer--absolute&quot;&gt;mysql-events:&lt;/span&gt;&lt;br role=&quot;presentation&quot; class=&quot;textLayer--absolute&quot;&gt;&lt;span style=&quot;left: 39.397px; top: 340.327px; font-family: sans-serif; transform: scaleX(0.88741);&quot; role=&quot;presentation&quot; dir=&quot;ltr&quot; class=&quot;textLayer--absolute&quot;&gt;image: mysql:latest&lt;/span&gt;&lt;br role=&quot;presentation&quot; class=&quot;textLayer--absolute&quot;&gt;&lt;span style=&quot;left: 39.397px; top: 348.933px; font-family: sans-serif; transform: scaleX(0.896805);&quot; role=&quot;presentation&quot; dir=&quot;ltr&quot; class=&quot;textLayer--absolute&quot;&gt;ports:&lt;/span&gt;&lt;br role=&quot;presentation&quot; class=&quot;textLayer--absolute&quot;&gt;&lt;span style=&quot;left: 43.2226px; top: 356.965px; font-family: sans-serif; transform: scaleX(0.937505);&quot; role=&quot;presentation&quot; dir=&quot;ltr&quot; class=&quot;textLayer--absolute&quot;&gt;- 3306:3306&lt;/span&gt;&lt;br role=&quot;presentation&quot; class=&quot;textLayer--absolute&quot;&gt;&lt;span style=&quot;left: 39.397px; top: 365.571px; font-family: sans-serif; transform: scaleX(0.882987);&quot; role=&quot;presentation&quot; dir=&quot;ltr&quot; class=&quot;textLayer--absolute&quot;&gt;volumes:&lt;/span&gt;&lt;br role=&quot;presentation&quot; class=&quot;textLayer--absolute&quot;&gt;&lt;div&gt;&lt;span style=&quot;left: 43.2226px; top: 373.603px; font-family: sans-serif; transform: scaleX(0.879342);&quot; role=&quot;presentation&quot; dir=&quot;ltr&quot; class=&quot;textLayer--absolute&quot;&gt;- mysql_event_data:/var/lib/mysql&lt;/span&gt;&lt;/div&gt;&lt;div&gt;&lt;span style=&quot;left: 43.2226px; top: 373.603px; font-family: sans-serif; transform: scaleX(0.879342);&quot; role=&quot;presentation&quot; dir=&quot;ltr&quot; class=&quot;textLayer--absolute&quot;&gt;evironment:&lt;/span&gt;&lt;/div&gt;&lt;div&gt;&lt;span style=&quot;left: 43.2226px; top: 373.603px; font-family: sans-serif; transform: scaleX(0.879342);&quot; role=&quot;presentation&quot; dir=&quot;ltr&quot; class=&quot;textLayer--absolute&quot;&gt;&amp;nbsp; MYSQL_ROOT_PASSWORD: abc123&lt;br&gt;&lt;/span&gt;&lt;/div&gt;&lt;div&gt;&lt;span style=&quot;left: 43.2226px; top: 373.603px; font-family: sans-serif; transform: scaleX(0.879342);&quot; role=&quot;presentation&quot; dir=&quot;ltr&quot; class=&quot;textLayer--absolute&quot;&gt;&lt;br&gt;&lt;/span&gt;&lt;span style=&quot;left: 41.3098px; top: 390.242px; font-family: sans-serif; transform: scaleX(0.937237);&quot; role=&quot;presentation&quot; dir=&quot;ltr&quot; class=&quot;textLayer--absolute&quot;&gt; &lt;/span&gt;&lt;/div&gt;&lt;div&gt;&lt;span style=&quot;left: 41.3098px; top: 390.242px; font-family: sans-serif; transform: scaleX(0.937237);&quot; role=&quot;presentation&quot; dir=&quot;ltr&quot; class=&quot;textLayer--absolute&quot;&gt;&lt;/span&gt;&lt;/div&gt;&lt;div&gt;&lt;br&gt;&lt;/div&gt;" style="whiteSpace=wrap;html=1;fillColor=#666666;align=left;rounded=0;verticalAlign=top;spacingLeft=2;fontSize=12;fontColor=#FFFFFF;" parent="1" vertex="1">
          <mxGeometry x="860" y="920" width="385" height="130" as="geometry" />
        </mxCell>
        <mxCell id="12s4rS00wi9rZ55LQjnT-3" value="&lt;span style=&quot;left: 37.4842px; top: 332.295px; font-family: sans-serif; transform: scaleX(0.963047);&quot; role=&quot;presentation&quot; dir=&quot;ltr&quot; class=&quot;textLayer--absolute&quot;&gt;mongo-rides:&lt;/span&gt;&lt;br role=&quot;presentation&quot; class=&quot;textLayer--absolute&quot;&gt;&lt;span style=&quot;left: 39.397px; top: 340.327px; font-family: sans-serif; transform: scaleX(0.88741);&quot; role=&quot;presentation&quot; dir=&quot;ltr&quot; class=&quot;textLayer--absolute&quot;&gt;image: mongo:latest&lt;/span&gt;&lt;br role=&quot;presentation&quot; class=&quot;textLayer--absolute&quot;&gt;&lt;span style=&quot;left: 39.397px; top: 348.933px; font-family: sans-serif; transform: scaleX(0.896805);&quot; role=&quot;presentation&quot; dir=&quot;ltr&quot; class=&quot;textLayer--absolute&quot;&gt;ports:&lt;/span&gt;&lt;br role=&quot;presentation&quot; class=&quot;textLayer--absolute&quot;&gt;&lt;span style=&quot;left: 43.2226px; top: 356.965px; font-family: sans-serif; transform: scaleX(0.937505);&quot; role=&quot;presentation&quot; dir=&quot;ltr&quot; class=&quot;textLayer--absolute&quot;&gt;- 27017:27017&lt;/span&gt;&lt;br role=&quot;presentation&quot; class=&quot;textLayer--absolute&quot;&gt;&lt;span style=&quot;left: 39.397px; top: 365.571px; font-family: sans-serif; transform: scaleX(0.882987);&quot; role=&quot;presentation&quot; dir=&quot;ltr&quot; class=&quot;textLayer--absolute&quot;&gt;volumes:&lt;/span&gt;&lt;br role=&quot;presentation&quot; class=&quot;textLayer--absolute&quot;&gt;&lt;span style=&quot;left: 43.2226px; top: 373.603px; font-family: sans-serif; transform: scaleX(0.879342);&quot; role=&quot;presentation&quot; dir=&quot;ltr&quot; class=&quot;textLayer--absolute&quot;&gt;- mongodb_ride_data:/data/db&lt;/span&gt;&lt;span style=&quot;left: 41.3098px; top: 390.242px; font-family: sans-serif; transform: scaleX(0.937237);&quot; role=&quot;presentation&quot; dir=&quot;ltr&quot; class=&quot;textLayer--absolute&quot;&gt; &lt;br&gt;&lt;/span&gt;&lt;div&gt;&lt;br&gt;&lt;/div&gt;" style="whiteSpace=wrap;html=1;fillColor=#666666;align=left;rounded=0;verticalAlign=top;spacingLeft=2;fontSize=12;fontColor=#FFFFFF;" parent="1" vertex="1">
          <mxGeometry x="60" y="920" width="385" height="100" as="geometry" />
        </mxCell>
        <mxCell id="12s4rS00wi9rZ55LQjnT-9" value="" style="group" parent="1" vertex="1" connectable="0">
          <mxGeometry x="105" y="290" width="240" height="110" as="geometry" />
        </mxCell>
        <mxCell id="12s4rS00wi9rZ55LQjnT-5" value="" style="ellipse;whiteSpace=wrap;html=1;aspect=fixed;fillColor=#808080;strokeColor=#FFFFFF;" parent="12s4rS00wi9rZ55LQjnT-9" vertex="1">
          <mxGeometry x="90" width="60" height="60" as="geometry" />
        </mxCell>
        <mxCell id="12s4rS00wi9rZ55LQjnT-4" value="&lt;font color=&quot;#ffffff&quot;&gt;event-service&lt;/font&gt;" style="rounded=1;whiteSpace=wrap;html=1;fillColor=#666666;strokeColor=#FFFFFF;" parent="12s4rS00wi9rZ55LQjnT-9" vertex="1">
          <mxGeometry y="30" width="240" height="30" as="geometry" />
        </mxCell>
        <mxCell id="12s4rS00wi9rZ55LQjnT-7" value="" style="rounded=0;whiteSpace=wrap;html=1;fillColor=#0066CC;dashed=1;strokeColor=#66B2FF;opacity=60;" parent="12s4rS00wi9rZ55LQjnT-9" vertex="1">
          <mxGeometry x="60" y="60" width="120" height="50" as="geometry" />
        </mxCell>
        <mxCell id="12s4rS00wi9rZ55LQjnT-8" value="event-service" style="rounded=1;whiteSpace=wrap;html=1;fillColor=#003300;strokeColor=#999999;fontColor=#FFFFFF;" parent="12s4rS00wi9rZ55LQjnT-9" vertex="1">
          <mxGeometry x="75" y="70" width="90" height="30" as="geometry" />
        </mxCell>
        <mxCell id="12s4rS00wi9rZ55LQjnT-11" value="" style="group" parent="1" vertex="1" connectable="0">
          <mxGeometry x="440" y="160" width="240" height="120" as="geometry" />
        </mxCell>
        <mxCell id="12s4rS00wi9rZ55LQjnT-12" value="" style="ellipse;whiteSpace=wrap;html=1;aspect=fixed;fillColor=#808080;strokeColor=#FFFFFF;" parent="12s4rS00wi9rZ55LQjnT-11" vertex="1">
          <mxGeometry x="90" width="60" height="60" as="geometry" />
        </mxCell>
        <mxCell id="12s4rS00wi9rZ55LQjnT-13" value="&lt;font color=&quot;#ffffff&quot;&gt;ticket-service&lt;/font&gt;" style="rounded=1;whiteSpace=wrap;html=1;fillColor=#666666;strokeColor=#FFFFFF;" parent="12s4rS00wi9rZ55LQjnT-11" vertex="1">
          <mxGeometry y="30" width="240" height="30" as="geometry" />
        </mxCell>
        <mxCell id="12s4rS00wi9rZ55LQjnT-14" value="" style="rounded=0;whiteSpace=wrap;html=1;fillColor=#0066CC;dashed=1;strokeColor=#66B2FF;opacity=60;" parent="12s4rS00wi9rZ55LQjnT-11" vertex="1">
          <mxGeometry x="60" y="60" width="120" height="60" as="geometry" />
        </mxCell>
        <mxCell id="12s4rS00wi9rZ55LQjnT-15" value="ticket-service" style="rounded=1;whiteSpace=wrap;html=1;fillColor=#003300;strokeColor=#999999;fontColor=#FFFFFF;" parent="12s4rS00wi9rZ55LQjnT-11" vertex="1">
          <mxGeometry x="75" y="75" width="90" height="30" as="geometry" />
        </mxCell>
        <mxCell id="12s4rS00wi9rZ55LQjnT-16" value="" style="group" parent="1" vertex="1" connectable="0">
          <mxGeometry x="1035" y="290" width="240" height="110" as="geometry" />
        </mxCell>
        <mxCell id="12s4rS00wi9rZ55LQjnT-17" value="" style="ellipse;whiteSpace=wrap;html=1;aspect=fixed;fillColor=#808080;strokeColor=#FFFFFF;" parent="12s4rS00wi9rZ55LQjnT-16" vertex="1">
          <mxGeometry x="90" width="60" height="60" as="geometry" />
        </mxCell>
        <mxCell id="12s4rS00wi9rZ55LQjnT-18" value="&lt;font color=&quot;#ffffff&quot;&gt;ride-service&lt;/font&gt;" style="rounded=1;whiteSpace=wrap;html=1;fillColor=#666666;strokeColor=#FFFFFF;" parent="12s4rS00wi9rZ55LQjnT-16" vertex="1">
          <mxGeometry y="30" width="240" height="30" as="geometry" />
        </mxCell>
        <mxCell id="12s4rS00wi9rZ55LQjnT-19" value="" style="rounded=0;whiteSpace=wrap;html=1;fillColor=#0066CC;dashed=1;strokeColor=#66B2FF;opacity=60;" parent="12s4rS00wi9rZ55LQjnT-16" vertex="1">
          <mxGeometry x="60" y="60" width="120" height="50" as="geometry" />
        </mxCell>
        <mxCell id="12s4rS00wi9rZ55LQjnT-20" value="ride-service" style="rounded=1;whiteSpace=wrap;html=1;fillColor=#003300;strokeColor=#999999;fontColor=#FFFFFF;" parent="12s4rS00wi9rZ55LQjnT-16" vertex="1">
          <mxGeometry x="75" y="70" width="90" height="30" as="geometry" />
        </mxCell>
        <mxCell id="12s4rS00wi9rZ55LQjnT-113" value="&lt;div&gt;ports:&lt;/div&gt;&lt;div&gt;8080:8080&lt;br&gt;&lt;/div&gt;" style="text;html=1;align=center;verticalAlign=middle;whiteSpace=wrap;rounded=0;fontColor=#FFFFFF;fontSize=12;" parent="12s4rS00wi9rZ55LQjnT-16" vertex="1">
          <mxGeometry x="20" y="-10" width="60" height="30" as="geometry" />
        </mxCell>
        <mxCell id="12s4rS00wi9rZ55LQjnT-21" value="" style="group" parent="1" vertex="1" connectable="0">
          <mxGeometry x="765" y="290" width="240" height="110" as="geometry" />
        </mxCell>
        <mxCell id="12s4rS00wi9rZ55LQjnT-22" value="" style="ellipse;whiteSpace=wrap;html=1;aspect=fixed;fillColor=#808080;strokeColor=#FFFFFF;" parent="12s4rS00wi9rZ55LQjnT-21" vertex="1">
          <mxGeometry x="90" width="60" height="60" as="geometry" />
        </mxCell>
        <mxCell id="12s4rS00wi9rZ55LQjnT-23" value="&lt;font color=&quot;#ffffff&quot;&gt;person-service&lt;/font&gt;" style="rounded=1;whiteSpace=wrap;html=1;fillColor=#666666;strokeColor=#FFFFFF;" parent="12s4rS00wi9rZ55LQjnT-21" vertex="1">
          <mxGeometry y="30" width="240" height="30" as="geometry" />
        </mxCell>
        <mxCell id="12s4rS00wi9rZ55LQjnT-24" value="" style="rounded=0;whiteSpace=wrap;html=1;fillColor=#0066CC;dashed=1;strokeColor=#66B2FF;opacity=60;" parent="12s4rS00wi9rZ55LQjnT-21" vertex="1">
          <mxGeometry x="60" y="60" width="120" height="50" as="geometry" />
        </mxCell>
        <mxCell id="12s4rS00wi9rZ55LQjnT-25" value="person-service" style="rounded=1;whiteSpace=wrap;html=1;fillColor=#003300;strokeColor=#999999;fontColor=#FFFFFF;" parent="12s4rS00wi9rZ55LQjnT-21" vertex="1">
          <mxGeometry x="75" y="70" width="90" height="30" as="geometry" />
        </mxCell>
        <mxCell id="12s4rS00wi9rZ55LQjnT-27" value="" style="endArrow=classic;html=1;rounded=0;exitX=1;exitY=0.5;exitDx=0;exitDy=0;entryX=0.5;entryY=0;entryDx=0;entryDy=0;strokeColor=#FFFFFF;" parent="1" source="12s4rS00wi9rZ55LQjnT-15" target="12s4rS00wi9rZ55LQjnT-22" edge="1">
          <mxGeometry width="50" height="50" relative="1" as="geometry">
            <mxPoint x="695" y="370" as="sourcePoint" />
            <mxPoint x="885" y="250" as="targetPoint" />
            <Array as="points">
              <mxPoint x="885" y="250" />
            </Array>
          </mxGeometry>
        </mxCell>
        <mxCell id="12s4rS00wi9rZ55LQjnT-29" value="" style="group" parent="1" vertex="1" connectable="0">
          <mxGeometry x="105" y="450" width="240" height="160" as="geometry" />
        </mxCell>
        <mxCell id="12s4rS00wi9rZ55LQjnT-30" value="" style="ellipse;whiteSpace=wrap;html=1;aspect=fixed;fillColor=#808080;strokeColor=#FFFFFF;" parent="12s4rS00wi9rZ55LQjnT-29" vertex="1">
          <mxGeometry x="90" width="60" height="60" as="geometry" />
        </mxCell>
        <mxCell id="12s4rS00wi9rZ55LQjnT-31" value="&lt;font color=&quot;#ffffff&quot;&gt;mysql-events&lt;/font&gt;" style="rounded=1;whiteSpace=wrap;html=1;fillColor=#666666;strokeColor=#FFFFFF;" parent="12s4rS00wi9rZ55LQjnT-29" vertex="1">
          <mxGeometry y="30" width="240" height="30" as="geometry" />
        </mxCell>
        <mxCell id="12s4rS00wi9rZ55LQjnT-32" value="" style="rounded=0;whiteSpace=wrap;html=1;fillColor=#0066CC;dashed=1;strokeColor=#66B2FF;opacity=60;" parent="12s4rS00wi9rZ55LQjnT-29" vertex="1">
          <mxGeometry x="60" y="60" width="120" height="100" as="geometry" />
        </mxCell>
        <mxCell id="12s4rS00wi9rZ55LQjnT-38" value="" style="shape=cylinder;whiteSpace=wrap;html=1;boundedLbl=1;backgroundOutline=1;fillColor=#99CCFF;strokeColor=default;" parent="12s4rS00wi9rZ55LQjnT-29" vertex="1">
          <mxGeometry x="105" y="80" width="30" height="40" as="geometry" />
        </mxCell>
        <mxCell id="12s4rS00wi9rZ55LQjnT-40" value="mysql:latest" style="text;html=1;align=center;verticalAlign=middle;whiteSpace=wrap;rounded=0;fontColor=#FFFFFF;" parent="12s4rS00wi9rZ55LQjnT-29" vertex="1">
          <mxGeometry x="90" y="130" width="60" height="30" as="geometry" />
        </mxCell>
        <mxCell id="12s4rS00wi9rZ55LQjnT-46" value="&lt;div&gt;ports:&lt;/div&gt;&lt;div&gt;3306:3306&lt;br&gt;&lt;/div&gt;" style="text;html=1;align=center;verticalAlign=middle;whiteSpace=wrap;rounded=0;fontColor=#FFFFFF;fontSize=12;" parent="12s4rS00wi9rZ55LQjnT-29" vertex="1">
          <mxGeometry x="20" y="-10" width="60" height="30" as="geometry" />
        </mxCell>
        <mxCell id="12s4rS00wi9rZ55LQjnT-34" value="" style="endArrow=classic;startArrow=classic;html=1;rounded=0;entryX=0.5;entryY=1;entryDx=0;entryDy=0;exitX=0.5;exitY=0;exitDx=0;exitDy=0;strokeColor=#FFFFFF;" parent="1" source="12s4rS00wi9rZ55LQjnT-30" target="12s4rS00wi9rZ55LQjnT-7" edge="1">
          <mxGeometry width="50" height="50" relative="1" as="geometry">
            <mxPoint x="545" y="420" as="sourcePoint" />
            <mxPoint x="595" y="370" as="targetPoint" />
          </mxGeometry>
        </mxCell>
        <mxCell id="12s4rS00wi9rZ55LQjnT-37" value="" style="shape=cylinder;whiteSpace=wrap;html=1;boundedLbl=1;backgroundOutline=1;fillColor=#CC0000;strokeColor=#FF3333;" parent="1" vertex="1">
          <mxGeometry x="200" y="700" width="50" height="30" as="geometry" />
        </mxCell>
        <mxCell id="12s4rS00wi9rZ55LQjnT-41" value="var/lib/mysql" style="text;html=1;align=center;verticalAlign=middle;whiteSpace=wrap;rounded=0;fontColor=#FFFFFF;fontSize=9;" parent="1" vertex="1">
          <mxGeometry x="195" y="640" width="60" height="30" as="geometry" />
        </mxCell>
        <mxCell id="12s4rS00wi9rZ55LQjnT-43" value="" style="endArrow=classic;html=1;rounded=0;entryX=0.5;entryY=0;entryDx=0;entryDy=0;exitX=0.5;exitY=1;exitDx=0;exitDy=0;strokeColor=#FFFFFF;" parent="1" source="12s4rS00wi9rZ55LQjnT-41" target="12s4rS00wi9rZ55LQjnT-37" edge="1">
          <mxGeometry width="50" height="50" relative="1" as="geometry">
            <mxPoint x="135" y="570" as="sourcePoint" />
            <mxPoint x="185" y="520" as="targetPoint" />
          </mxGeometry>
        </mxCell>
        <mxCell id="12s4rS00wi9rZ55LQjnT-44" value="" style="endArrow=classic;html=1;rounded=0;exitX=0.5;exitY=0;exitDx=0;exitDy=0;entryX=0.5;entryY=1;entryDx=0;entryDy=0;strokeColor=#FFFFFF;" parent="1" source="12s4rS00wi9rZ55LQjnT-41" target="12s4rS00wi9rZ55LQjnT-32" edge="1">
          <mxGeometry width="50" height="50" relative="1" as="geometry">
            <mxPoint x="135" y="570" as="sourcePoint" />
            <mxPoint x="185" y="520" as="targetPoint" />
          </mxGeometry>
        </mxCell>
        <mxCell id="12s4rS00wi9rZ55LQjnT-47" value="" style="group" parent="1" vertex="1" connectable="0">
          <mxGeometry x="765" y="450" width="240" height="160" as="geometry" />
        </mxCell>
        <mxCell id="12s4rS00wi9rZ55LQjnT-48" value="" style="ellipse;whiteSpace=wrap;html=1;aspect=fixed;fillColor=#808080;strokeColor=#FFFFFF;" parent="12s4rS00wi9rZ55LQjnT-47" vertex="1">
          <mxGeometry x="90" width="60" height="60" as="geometry" />
        </mxCell>
        <mxCell id="12s4rS00wi9rZ55LQjnT-49" value="&lt;font color=&quot;#ffffff&quot;&gt;mongo-people&lt;/font&gt;" style="rounded=1;whiteSpace=wrap;html=1;fillColor=#666666;strokeColor=#FFFFFF;" parent="12s4rS00wi9rZ55LQjnT-47" vertex="1">
          <mxGeometry y="30" width="240" height="30" as="geometry" />
        </mxCell>
        <mxCell id="12s4rS00wi9rZ55LQjnT-50" value="" style="rounded=0;whiteSpace=wrap;html=1;fillColor=#0066CC;dashed=1;strokeColor=#66B2FF;opacity=60;" parent="12s4rS00wi9rZ55LQjnT-47" vertex="1">
          <mxGeometry x="60" y="60" width="120" height="100" as="geometry" />
        </mxCell>
        <mxCell id="12s4rS00wi9rZ55LQjnT-51" value="" style="shape=cylinder;whiteSpace=wrap;html=1;boundedLbl=1;backgroundOutline=1;fillColor=#00FF00;strokeColor=default;" parent="12s4rS00wi9rZ55LQjnT-47" vertex="1">
          <mxGeometry x="105" y="80" width="30" height="40" as="geometry" />
        </mxCell>
        <mxCell id="12s4rS00wi9rZ55LQjnT-52" value="mongo:latest" style="text;html=1;align=center;verticalAlign=middle;whiteSpace=wrap;rounded=0;fontColor=#FFFFFF;" parent="12s4rS00wi9rZ55LQjnT-47" vertex="1">
          <mxGeometry x="90" y="130" width="60" height="30" as="geometry" />
        </mxCell>
        <mxCell id="12s4rS00wi9rZ55LQjnT-53" value="&lt;div&gt;ports:&lt;/div&gt;&lt;div&gt;27017:27017&lt;br&gt;&lt;/div&gt;" style="text;html=1;align=center;verticalAlign=middle;whiteSpace=wrap;rounded=0;fontColor=#FFFFFF;fontSize=12;" parent="12s4rS00wi9rZ55LQjnT-47" vertex="1">
          <mxGeometry x="20" y="-10" width="60" height="30" as="geometry" />
        </mxCell>
        <mxCell id="12s4rS00wi9rZ55LQjnT-54" value="" style="shape=cylinder;whiteSpace=wrap;html=1;boundedLbl=1;backgroundOutline=1;fillColor=#CC0000;strokeColor=#FF3333;" parent="1" vertex="1">
          <mxGeometry x="860" y="700" width="50" height="30" as="geometry" />
        </mxCell>
        <mxCell id="12s4rS00wi9rZ55LQjnT-55" value="/data/db" style="text;html=1;align=center;verticalAlign=middle;whiteSpace=wrap;rounded=0;fontColor=#FFFFFF;fontSize=9;" parent="1" vertex="1">
          <mxGeometry x="855" y="640" width="60" height="30" as="geometry" />
        </mxCell>
        <mxCell id="12s4rS00wi9rZ55LQjnT-56" value="" style="endArrow=classic;html=1;rounded=0;entryX=0.5;entryY=0;entryDx=0;entryDy=0;exitX=0.5;exitY=1;exitDx=0;exitDy=0;strokeColor=#FFFFFF;" parent="1" source="12s4rS00wi9rZ55LQjnT-55" target="12s4rS00wi9rZ55LQjnT-54" edge="1">
          <mxGeometry width="50" height="50" relative="1" as="geometry">
            <mxPoint x="795" y="570" as="sourcePoint" />
            <mxPoint x="845" y="520" as="targetPoint" />
          </mxGeometry>
        </mxCell>
        <mxCell id="12s4rS00wi9rZ55LQjnT-57" value="" style="endArrow=classic;html=1;rounded=0;exitX=0.5;exitY=0;exitDx=0;exitDy=0;entryX=0.5;entryY=1;entryDx=0;entryDy=0;strokeColor=#FFFFFF;" parent="1" source="12s4rS00wi9rZ55LQjnT-55" target="12s4rS00wi9rZ55LQjnT-52" edge="1">
          <mxGeometry width="50" height="50" relative="1" as="geometry">
            <mxPoint x="795" y="570" as="sourcePoint" />
            <mxPoint x="845" y="520" as="targetPoint" />
          </mxGeometry>
        </mxCell>
        <mxCell id="12s4rS00wi9rZ55LQjnT-58" value="" style="group" parent="1" vertex="1" connectable="0">
          <mxGeometry x="1035" y="450" width="240" height="160" as="geometry" />
        </mxCell>
        <mxCell id="12s4rS00wi9rZ55LQjnT-59" value="" style="ellipse;whiteSpace=wrap;html=1;aspect=fixed;fillColor=#808080;strokeColor=#FFFFFF;" parent="12s4rS00wi9rZ55LQjnT-58" vertex="1">
          <mxGeometry x="90" width="60" height="60" as="geometry" />
        </mxCell>
        <mxCell id="12s4rS00wi9rZ55LQjnT-60" value="&lt;font color=&quot;#ffffff&quot;&gt;mongo-rides&lt;/font&gt;" style="rounded=1;whiteSpace=wrap;html=1;fillColor=#666666;strokeColor=#FFFFFF;" parent="12s4rS00wi9rZ55LQjnT-58" vertex="1">
          <mxGeometry y="30" width="240" height="30" as="geometry" />
        </mxCell>
        <mxCell id="12s4rS00wi9rZ55LQjnT-61" value="" style="rounded=0;whiteSpace=wrap;html=1;fillColor=#0066CC;dashed=1;strokeColor=#66B2FF;opacity=60;" parent="12s4rS00wi9rZ55LQjnT-58" vertex="1">
          <mxGeometry x="60" y="60" width="120" height="100" as="geometry" />
        </mxCell>
        <mxCell id="12s4rS00wi9rZ55LQjnT-62" value="" style="shape=cylinder;whiteSpace=wrap;html=1;boundedLbl=1;backgroundOutline=1;fillColor=#00FF00;strokeColor=default;" parent="12s4rS00wi9rZ55LQjnT-58" vertex="1">
          <mxGeometry x="105" y="80" width="30" height="40" as="geometry" />
        </mxCell>
        <mxCell id="12s4rS00wi9rZ55LQjnT-63" value="mongo:latest" style="text;html=1;align=center;verticalAlign=middle;whiteSpace=wrap;rounded=0;fontColor=#FFFFFF;" parent="12s4rS00wi9rZ55LQjnT-58" vertex="1">
          <mxGeometry x="90" y="130" width="60" height="30" as="geometry" />
        </mxCell>
        <mxCell id="12s4rS00wi9rZ55LQjnT-64" value="&lt;div&gt;ports:&lt;/div&gt;&lt;div&gt;27017:27017&lt;br&gt;&lt;/div&gt;" style="text;html=1;align=center;verticalAlign=middle;whiteSpace=wrap;rounded=0;fontColor=#FFFFFF;fontSize=12;" parent="12s4rS00wi9rZ55LQjnT-58" vertex="1">
          <mxGeometry x="20" y="-10" width="60" height="30" as="geometry" />
        </mxCell>
        <mxCell id="12s4rS00wi9rZ55LQjnT-65" value="" style="shape=cylinder;whiteSpace=wrap;html=1;boundedLbl=1;backgroundOutline=1;fillColor=#CC0000;strokeColor=#FF3333;" parent="1" vertex="1">
          <mxGeometry x="1130" y="700" width="50" height="30" as="geometry" />
        </mxCell>
        <mxCell id="12s4rS00wi9rZ55LQjnT-66" value="/data/db" style="text;html=1;align=center;verticalAlign=middle;whiteSpace=wrap;rounded=0;fontColor=#FFFFFF;fontSize=9;" parent="1" vertex="1">
          <mxGeometry x="1125" y="640" width="60" height="30" as="geometry" />
        </mxCell>
        <mxCell id="12s4rS00wi9rZ55LQjnT-67" value="" style="endArrow=classic;html=1;rounded=0;entryX=0.5;entryY=0;entryDx=0;entryDy=0;exitX=0.5;exitY=1;exitDx=0;exitDy=0;strokeColor=#FFFFFF;" parent="1" source="12s4rS00wi9rZ55LQjnT-66" target="12s4rS00wi9rZ55LQjnT-65" edge="1">
          <mxGeometry width="50" height="50" relative="1" as="geometry">
            <mxPoint x="1065" y="570" as="sourcePoint" />
            <mxPoint x="1115" y="520" as="targetPoint" />
          </mxGeometry>
        </mxCell>
        <mxCell id="12s4rS00wi9rZ55LQjnT-68" value="" style="endArrow=classic;html=1;rounded=0;exitX=0.5;exitY=0;exitDx=0;exitDy=0;entryX=0.5;entryY=1;entryDx=0;entryDy=0;strokeColor=#FFFFFF;" parent="1" source="12s4rS00wi9rZ55LQjnT-66" target="12s4rS00wi9rZ55LQjnT-63" edge="1">
          <mxGeometry width="50" height="50" relative="1" as="geometry">
            <mxPoint x="1065" y="570" as="sourcePoint" />
            <mxPoint x="1115" y="520" as="targetPoint" />
          </mxGeometry>
        </mxCell>
        <mxCell id="12s4rS00wi9rZ55LQjnT-100" value="" style="group" parent="1" vertex="1" connectable="0">
          <mxGeometry x="440" y="450" width="240" height="160" as="geometry" />
        </mxCell>
        <mxCell id="12s4rS00wi9rZ55LQjnT-101" value="" style="ellipse;whiteSpace=wrap;html=1;aspect=fixed;fillColor=#808080;strokeColor=#FFFFFF;" parent="12s4rS00wi9rZ55LQjnT-100" vertex="1">
          <mxGeometry x="90" width="60" height="60" as="geometry" />
        </mxCell>
        <mxCell id="12s4rS00wi9rZ55LQjnT-102" value="&lt;font color=&quot;#ffffff&quot;&gt;mysql-tickets&lt;/font&gt;" style="rounded=1;whiteSpace=wrap;html=1;fillColor=#666666;strokeColor=#FFFFFF;" parent="12s4rS00wi9rZ55LQjnT-100" vertex="1">
          <mxGeometry y="30" width="240" height="30" as="geometry" />
        </mxCell>
        <mxCell id="12s4rS00wi9rZ55LQjnT-103" value="" style="rounded=0;whiteSpace=wrap;html=1;fillColor=#0066CC;dashed=1;strokeColor=#66B2FF;opacity=60;" parent="12s4rS00wi9rZ55LQjnT-100" vertex="1">
          <mxGeometry x="60" y="60" width="120" height="100" as="geometry" />
        </mxCell>
        <mxCell id="12s4rS00wi9rZ55LQjnT-104" value="" style="shape=cylinder;whiteSpace=wrap;html=1;boundedLbl=1;backgroundOutline=1;fillColor=#99CCFF;strokeColor=default;" parent="12s4rS00wi9rZ55LQjnT-100" vertex="1">
          <mxGeometry x="105" y="80" width="30" height="40" as="geometry" />
        </mxCell>
        <mxCell id="12s4rS00wi9rZ55LQjnT-105" value="mysql:latest" style="text;html=1;align=center;verticalAlign=middle;whiteSpace=wrap;rounded=0;fontColor=#FFFFFF;" parent="12s4rS00wi9rZ55LQjnT-100" vertex="1">
          <mxGeometry x="90" y="130" width="60" height="30" as="geometry" />
        </mxCell>
        <mxCell id="12s4rS00wi9rZ55LQjnT-106" value="&lt;div&gt;ports:&lt;/div&gt;&lt;div&gt;3306:3306&lt;br&gt;&lt;/div&gt;" style="text;html=1;align=center;verticalAlign=middle;whiteSpace=wrap;rounded=0;fontColor=#FFFFFF;fontSize=12;" parent="12s4rS00wi9rZ55LQjnT-100" vertex="1">
          <mxGeometry x="20" y="-10" width="60" height="30" as="geometry" />
        </mxCell>
        <mxCell id="12s4rS00wi9rZ55LQjnT-107" value="" style="shape=cylinder;whiteSpace=wrap;html=1;boundedLbl=1;backgroundOutline=1;fillColor=#CC0000;strokeColor=#FF3333;" parent="1" vertex="1">
          <mxGeometry x="535" y="700" width="50" height="30" as="geometry" />
        </mxCell>
        <mxCell id="12s4rS00wi9rZ55LQjnT-108" value="/var/lib/mysql" style="text;html=1;align=center;verticalAlign=middle;whiteSpace=wrap;rounded=0;fontColor=#FFFFFF;fontSize=9;" parent="1" vertex="1">
          <mxGeometry x="530" y="640" width="60" height="30" as="geometry" />
        </mxCell>
        <mxCell id="12s4rS00wi9rZ55LQjnT-109" value="" style="endArrow=classic;html=1;rounded=0;entryX=0.5;entryY=0;entryDx=0;entryDy=0;exitX=0.5;exitY=1;exitDx=0;exitDy=0;strokeColor=#FFFFFF;" parent="1" source="12s4rS00wi9rZ55LQjnT-108" target="12s4rS00wi9rZ55LQjnT-107" edge="1">
          <mxGeometry width="50" height="50" relative="1" as="geometry">
            <mxPoint x="470" y="570" as="sourcePoint" />
            <mxPoint x="520" y="520" as="targetPoint" />
          </mxGeometry>
        </mxCell>
        <mxCell id="12s4rS00wi9rZ55LQjnT-110" value="" style="endArrow=classic;html=1;rounded=0;exitX=0.5;exitY=0;exitDx=0;exitDy=0;entryX=0.5;entryY=1;entryDx=0;entryDy=0;strokeColor=#FFFFFF;" parent="1" source="12s4rS00wi9rZ55LQjnT-108" target="12s4rS00wi9rZ55LQjnT-105" edge="1">
          <mxGeometry width="50" height="50" relative="1" as="geometry">
            <mxPoint x="470" y="570" as="sourcePoint" />
            <mxPoint x="520" y="520" as="targetPoint" />
          </mxGeometry>
        </mxCell>
        <mxCell id="12s4rS00wi9rZ55LQjnT-111" value="" style="endArrow=classic;startArrow=classic;html=1;rounded=0;entryX=0.5;entryY=1;entryDx=0;entryDy=0;exitX=0.5;exitY=0;exitDx=0;exitDy=0;strokeColor=#FFFFFF;" parent="1" source="12s4rS00wi9rZ55LQjnT-101" target="12s4rS00wi9rZ55LQjnT-14" edge="1">
          <mxGeometry width="50" height="50" relative="1" as="geometry">
            <mxPoint x="575" y="580" as="sourcePoint" />
            <mxPoint x="625" y="530" as="targetPoint" />
          </mxGeometry>
        </mxCell>
        <mxCell id="12s4rS00wi9rZ55LQjnT-45" value="&lt;div&gt;ports:&lt;/div&gt;&lt;div&gt;8081:8081&lt;br&gt;&lt;/div&gt;" style="text;html=1;align=center;verticalAlign=middle;whiteSpace=wrap;rounded=0;fontColor=#FFFFFF;fontSize=12;" parent="1" vertex="1">
          <mxGeometry x="125" y="280" width="60" height="30" as="geometry" />
        </mxCell>
        <mxCell id="12s4rS00wi9rZ55LQjnT-112" value="&lt;div&gt;ports:&lt;/div&gt;&lt;div&gt;8083:8083&lt;br&gt;&lt;/div&gt;" style="text;html=1;align=center;verticalAlign=middle;whiteSpace=wrap;rounded=0;fontColor=#FFFFFF;fontSize=12;" parent="1" vertex="1">
          <mxGeometry x="785" y="280" width="60" height="30" as="geometry" />
        </mxCell>
        <mxCell id="12s4rS00wi9rZ55LQjnT-114" value="&lt;div&gt;volumes:&lt;/div&gt;&lt;div&gt;mongodb_person_data:&lt;/div&gt;&lt;div&gt;mongodb_ride_data:&lt;/div&gt;&lt;div&gt;mysql_event_data:&lt;/div&gt;&lt;div&gt;mysql_ticket_data:&lt;br&gt;&lt;/div&gt;&lt;div&gt;&lt;br&gt;&lt;/div&gt;" style="rounded=0;whiteSpace=wrap;html=1;fillColor=#CC0000;fontColor=#FFFFFF;align=left;verticalAlign=top;" parent="1" vertex="1">
          <mxGeometry x="760" y="810" width="180" height="90" as="geometry" />
        </mxCell>
        <mxCell id="L0pvZLYWbtWFpHT2_KAi-1" style="edgeStyle=orthogonalEdgeStyle;rounded=0;orthogonalLoop=1;jettySize=auto;html=1;exitX=1;exitY=0.5;exitDx=0;exitDy=0;entryX=0.5;entryY=0;entryDx=0;entryDy=0;" edge="1" parent="1" source="12s4rS00wi9rZ55LQjnT-41" target="12s4rS00wi9rZ55LQjnT-41">
          <mxGeometry relative="1" as="geometry" />
        </mxCell>
        <mxCell id="L0pvZLYWbtWFpHT2_KAi-4" style="edgeStyle=orthogonalEdgeStyle;rounded=0;orthogonalLoop=1;jettySize=auto;html=1;entryX=0.5;entryY=0;entryDx=0;entryDy=0;" edge="1" parent="1" target="12s4rS00wi9rZ55LQjnT-37">
          <mxGeometry relative="1" as="geometry">
            <mxPoint x="225" y="700" as="sourcePoint" />
          </mxGeometry>
        </mxCell>
        <mxCell id="L0pvZLYWbtWFpHT2_KAi-6" value="" style="verticalLabelPosition=bottom;verticalAlign=top;html=1;shadow=0;dashed=0;strokeWidth=1;shape=mxgraph.android.phone2;strokeColor=#c0c0c0;" vertex="1" parent="1">
          <mxGeometry x="547.18" y="30" width="25.64" height="50" as="geometry" />
        </mxCell>
        <mxCell id="L0pvZLYWbtWFpHT2_KAi-7" value="&lt;font color=&quot;#ffffff&quot;&gt;api-gateway&lt;span style=&quot;white-space: pre;&quot;&gt;&#x9;&lt;/span&gt;&lt;/font&gt;" style="text;html=1;align=center;verticalAlign=middle;whiteSpace=wrap;rounded=0;" vertex="1" parent="1">
          <mxGeometry x="580" y="35" width="100" height="40" as="geometry" />
        </mxCell>
        <mxCell id="L0pvZLYWbtWFpHT2_KAi-8" value="" style="endArrow=classic;startArrow=classic;html=1;rounded=0;entryX=0.5;entryY=1;entryDx=0;entryDy=0;exitX=0.5;exitY=0;exitDx=0;exitDy=0;strokeColor=#FFFFFF;" edge="1" parent="1" source="12s4rS00wi9rZ55LQjnT-12">
          <mxGeometry width="50" height="50" relative="1" as="geometry">
            <mxPoint x="559.52" y="250" as="sourcePoint" />
            <mxPoint x="559.52" y="80" as="targetPoint" />
          </mxGeometry>
        </mxCell>
        <mxCell id="L0pvZLYWbtWFpHT2_KAi-9" value="" style="endArrow=classic;startArrow=classic;html=1;rounded=0;entryX=-0.085;entryY=0.524;entryDx=0;entryDy=0;exitX=0.5;exitY=0;exitDx=0;exitDy=0;strokeColor=#FFFFFF;entryPerimeter=0;" edge="1" parent="1" source="12s4rS00wi9rZ55LQjnT-5" target="L0pvZLYWbtWFpHT2_KAi-6">
          <mxGeometry width="50" height="50" relative="1" as="geometry">
            <mxPoint x="570" y="170" as="sourcePoint" />
            <mxPoint x="569.52" y="90" as="targetPoint" />
            <Array as="points">
              <mxPoint x="225" y="56" />
            </Array>
          </mxGeometry>
        </mxCell>
        <mxCell id="L0pvZLYWbtWFpHT2_KAi-10" value="" style="endArrow=classic;startArrow=classic;html=1;rounded=0;entryX=1.083;entryY=0.222;entryDx=0;entryDy=0;exitX=0.5;exitY=0;exitDx=0;exitDy=0;strokeColor=#FFFFFF;entryPerimeter=0;" edge="1" parent="1" source="12s4rS00wi9rZ55LQjnT-17" target="L0pvZLYWbtWFpHT2_KAi-6">
          <mxGeometry width="50" height="50" relative="1" as="geometry">
            <mxPoint x="950" y="300" as="sourcePoint" />
            <mxPoint x="1270" y="66" as="targetPoint" />
            <Array as="points">
              <mxPoint x="1155" y="41" />
            </Array>
          </mxGeometry>
        </mxCell>
        <mxCell id="L0pvZLYWbtWFpHT2_KAi-11" value="" style="endArrow=classic;startArrow=classic;html=1;rounded=0;entryX=0.86;entryY=0.984;entryDx=0;entryDy=0;exitX=1;exitY=0;exitDx=0;exitDy=0;strokeColor=#FFFFFF;entryPerimeter=0;" edge="1" parent="1" source="12s4rS00wi9rZ55LQjnT-22" target="L0pvZLYWbtWFpHT2_KAi-6">
          <mxGeometry width="50" height="50" relative="1" as="geometry">
            <mxPoint x="1165" y="300" as="sourcePoint" />
            <mxPoint x="585" y="81" as="targetPoint" />
            <Array as="points">
              <mxPoint x="906" y="80" />
            </Array>
          </mxGeometry>
        </mxCell>
        <mxCell id="L0pvZLYWbtWFpHT2_KAi-12" value="" style="endArrow=classic;startArrow=classic;html=1;rounded=0;entryX=0.5;entryY=1;entryDx=0;entryDy=0;exitX=0.5;exitY=0;exitDx=0;exitDy=0;strokeColor=#FFFFFF;" edge="1" parent="1" source="12s4rS00wi9rZ55LQjnT-48" target="12s4rS00wi9rZ55LQjnT-24">
          <mxGeometry width="50" height="50" relative="1" as="geometry">
            <mxPoint x="900" y="565" as="sourcePoint" />
            <mxPoint x="900" y="395" as="targetPoint" />
          </mxGeometry>
        </mxCell>
        <mxCell id="L0pvZLYWbtWFpHT2_KAi-13" value="" style="endArrow=classic;startArrow=classic;html=1;rounded=0;entryX=0.5;entryY=1;entryDx=0;entryDy=0;exitX=0.5;exitY=0;exitDx=0;exitDy=0;strokeColor=#FFFFFF;" edge="1" parent="1">
          <mxGeometry width="50" height="50" relative="1" as="geometry">
            <mxPoint x="1154.73" y="450" as="sourcePoint" />
            <mxPoint x="1154.73" y="400" as="targetPoint" />
          </mxGeometry>
        </mxCell>
      </root>
    </mxGraphModel>
  </diagram>
</mxfile>
